<svg xmlns="http://www.w3.org/2000/svg" version="1.1" xmlns:xlink="http://www.w3.org/1999/xlink" xmlns:svgjs="http://svgjs.com/svgjs" width="501.98187px" height="426.688px"><svg width="501.98187px" height="426.688px" viewBox="0 0 501.98187 426.688" version="1.1" xmlns:xlink="http://www.w3.org/1999/xlink" xmlns="http://www.w3.org/2000/svg">
  <g id="SvgjsG1007">
    <path d="M422.991 416.844L10 416.688L10 10L422.991 9.99997L422.991 416.844Z" id="SvgjsPath1006" fill="#6B7C7C" fill-rule="evenodd" stroke="none"></path>
    <g id="SvgjsG1005">
      <g id="SvgjsG1004">
        <path d="M209.288 340.216C201.874 340.216 194.462 337.388 188.806 331.732L90.32 233.247C79.008 221.935 79.008 203.594 90.32 192.282C101.633 180.97 119.972 180.97 131.285 192.282L209.288 270.285L442.552 37.022C453.865 25.71 472.204 25.71 483.517 37.022C494.829 48.334 494.829 66.675 483.517 77.987L229.771 331.733C224.114 337.388 216.702 340.216 209.288 340.216L209.288 340.216Z" id="SvgjsPath1003" fill="#3C5353" stroke="none"></path>
        <g id="SvgjsG1002">
          <path d="M416.688 275.332L416.688 416.688L10 416.688L10 10L426.688 10C432.21 10 432.21 0 426.688 0L10 1.62202e-05C4.478 1.62202e-05 0 4.47702 0 10L0 416.688C0 422.211 4.478 426.688 10 426.688L416.688 426.688C422.21 426.688 426.688 422.211 426.688 416.688L426.688 275.332C426.688 269.809 416.688 269.809 416.688 275.332Z" id="SvgjsPath1001" fill="#000000" stroke="none"></path>
          <path d="M490.587 29.95C475.394 14.76 450.674 14.76 435.481 29.95L209.288 256.143L138.355 185.21C123.164 170.019 98.442 170.018 83.249 185.21C68.057 200.403 68.057 225.124 83.249 240.316L181.735 338.802C189.094 346.161 198.88 350.215 209.288 350.215C219.696 350.215 229.481 346.162 236.842 338.802L490.588 85.056C505.78 69.865 505.78 45.144 490.587 29.95L490.587 29.95ZM476.445 70.916L222.7 324.661C219.117 328.243 214.354 330.216 209.288 330.216C204.222 330.216 199.459 328.243 195.877 324.661L97.392 226.175C89.997 218.78 89.997 206.747 97.391 199.352C101.089 195.654 105.946 193.806 110.803 193.806C115.659 193.806 120.517 195.655 124.214 199.351L202.217 277.355C204.093 279.23 206.636 280.284 209.288 280.284C211.94 280.284 214.483 279.23 216.359 277.355L449.622 44.094C457.018 36.7 469.05 36.699 476.445 44.094C483.84 51.488 483.84 63.521 476.445 70.916L476.445 70.916Z" id="SvgjsPath1000" fill="none" fill-rule="evenodd" stroke="none"></path>
        </g>
      </g>
    </g>
  </g>
</svg><style>@media (prefers-color-scheme: light) { :root { filter: none; } }
@media (prefers-color-scheme: dark) { :root { filter: contrast(0.9090909090909091) brightness(1.5); } }
</style></svg>